<svg width="48" xmlns="http://www.w3.org/2000/svg" height="48" fill="none"><g style="fill: rgb(0, 0, 0);"><path d="M24.000,7.000C16.129,7.000,9.000,13.342,9.000,21.167C9.000,28.991,12.750,34.955,24.000,48.000C35.250,34.955,39.000,28.991,39.000,21.167C39.000,13.342,31.873,7.000,24.000,7.000ZZ" style="fill: rgb(0, 89, 98);" class="fills"/><g style="fill: rgb(0, 0, 0);"><path d="M22.344,27.000L21.516,24.281L17.352,24.281L16.523,27.000L13.914,27.000L17.945,15.531L20.906,15.531L24.953,27.000L22.344,27.000ZZM20.937,22.250C20.172,19.786,19.741,18.393,19.645,18.070C19.548,17.747,19.479,17.492,19.437,17.305C19.266,17.971,18.773,19.620,17.961,22.250L20.937,22.250ZZ" style="fill: rgb(255, 255, 255);" class="fills"/><path d="M30.016,19.625C31.120,19.625,31.999,19.935,32.652,20.555C33.306,21.174,33.633,22.023,33.633,23.102C33.633,24.378,33.240,25.359,32.453,26.047C31.667,26.734,30.542,27.078,29.078,27.078C27.807,27.078,26.781,26.872,26.000,26.461L26.000,24.375C26.411,24.594,26.891,24.772,27.438,24.910C27.984,25.048,28.503,25.117,28.992,25.117C30.466,25.117,31.203,24.513,31.203,23.305C31.203,22.154,30.440,21.578,28.914,21.578C28.638,21.578,28.333,21.605,28.000,21.660C27.667,21.715,27.396,21.773,27.188,21.836L26.227,21.320L26.656,15.500L32.852,15.500L32.852,17.547L28.773,17.547L28.563,19.789L28.836,19.734C29.154,19.661,29.547,19.625,30.016,19.625ZZ" style="fill: rgb(255, 255, 255);" class="fills"/></g></g></svg>